<svg width="379" height="30" viewBox="0 0 379 30" fill="none" xmlns="http://www.w3.org/2000/svg">
<path d="M23.6577 22.3834H22.1128L22.12 21.4793C22.12 21.0774 22.4474 20.7487 22.8477 20.7487H22.9462C23.3471 20.7487 23.6755 21.0774 23.6755 21.4793L23.6577 22.3834ZM17.8638 20.4459C17.4719 20.4459 17.1514 20.7112 17.1514 21.0361V25.4335C17.1514 25.7577 17.4719 26.0225 17.8638 26.0225C18.2572 26.0225 18.578 25.7577 18.578 25.4335V21.0361C18.578 20.7109 18.2572 20.4459 17.8638 20.4459ZM27.2728 17.9861V26.3515C27.2728 28.3581 25.5459 30 23.4356 30H7.65571C5.54449 30 3.81824 28.3581 3.81824 26.3515V17.9861C3.81824 15.9795 5.54449 14.3373 7.65571 14.3373H23.4356C25.5459 14.3373 27.2728 15.9795 27.2728 17.9861ZM8.70835 27.2598L8.7071 18.4478L10.6632 18.4484V17.1428L5.4488 17.1349V18.4185L7.07654 18.4232V27.2598H8.70835ZM14.572 19.7604H12.9411V24.4659C12.9411 25.1467 12.9821 25.487 12.9386 25.6071C12.806 25.9721 12.21 26.3594 11.9776 25.6465C11.9382 25.5217 11.9729 25.1451 11.9723 24.4984L11.9657 19.7604H10.3439L10.3489 24.4237C10.3502 25.1385 10.333 25.6717 10.3546 25.9141C10.3943 26.3417 10.3802 26.8406 10.7739 27.1252C11.5076 27.6581 12.9139 27.0458 13.2657 26.2844L13.2626 27.256L14.5723 27.2576V19.7604H14.572ZM19.7892 25.1489L19.7858 21.2325C19.7845 19.7399 18.6765 18.8458 17.1723 20.0535L17.1789 17.1418L15.5496 17.1443L15.5418 27.1945L16.8812 27.1747L17.0031 26.5488C18.7156 28.1318 19.7917 27.0473 19.7892 25.1489ZM24.8932 24.6298L23.6702 24.6364C23.6695 24.6853 23.668 24.7417 23.6674 24.8032V25.4908C23.6674 25.8586 23.3656 26.1583 22.9991 26.1583H22.7595C22.3924 26.1583 22.0909 25.8586 22.0909 25.4908V25.4145V24.6582V23.6822H24.8911V22.6201C24.8911 21.8439 24.8714 21.068 24.8076 20.6242C24.6074 19.2206 22.6522 18.9977 21.6646 19.7163C21.3544 19.9407 21.1177 20.241 20.9801 20.6447C20.8409 21.0484 20.7721 21.6 20.7721 22.3005V24.6355C20.7724 28.5175 25.4515 27.9689 24.8932 24.6298ZM18.6206 11.9519C18.7047 12.158 18.8354 12.325 19.0127 12.4511C19.1878 12.5753 19.4121 12.6377 19.6801 12.6377C19.9153 12.6377 20.1235 12.5737 20.3049 12.4417C20.4857 12.3102 20.638 12.1139 20.7621 11.852L20.7315 12.4968H22.5494V4.70594H21.1183V10.7695C21.1183 11.0978 20.85 11.3667 20.5219 11.3667C20.1958 11.3667 19.9265 11.0978 19.9265 10.7695V4.70594H18.4329V9.96078C18.4329 10.6302 18.4448 11.0764 18.4645 11.3027C18.4855 11.5274 18.5364 11.743 18.6206 11.9519ZM13.1116 7.55176C13.1116 6.80391 13.1735 6.21993 13.2964 5.79889C13.4202 5.37942 13.6426 5.04221 13.9647 4.78788C14.2858 4.53229 14.6971 4.40434 15.1971 4.40434C15.6178 4.40434 15.978 4.48754 16.2792 4.65048C16.5816 4.81436 16.8146 5.02708 16.9766 5.2896C17.1414 5.55307 17.2533 5.82379 17.313 6.1008C17.374 6.3816 17.404 6.80517 17.404 7.37654V9.34686C17.404 10.0695 17.3753 10.6012 17.3196 10.9387C17.2643 11.2772 17.1454 11.5911 16.9615 11.8854C16.7798 12.1766 16.5456 12.3944 16.2617 12.5334C15.9746 12.6736 15.6462 12.7423 15.2753 12.7423C14.861 12.7423 14.5119 12.6846 14.2242 12.5642C13.9356 12.4445 13.7126 12.2639 13.5538 12.0241C13.3933 11.7839 13.2804 11.4915 13.2123 11.1505C13.1438 10.8098 13.1112 10.2974 13.1112 9.61443V7.55176H13.1116ZM14.5354 10.6465C14.5354 11.0878 14.8613 11.448 15.2581 11.448C15.6553 11.448 15.9796 11.0878 15.9796 10.6465V6.49916C15.9796 6.05857 15.6553 5.69836 15.2581 5.69836C14.8613 5.69836 14.5354 6.05857 14.5354 6.49916V10.6465ZM9.50424 12.7407H11.2192L11.2211 6.76546L13.2476 1.64677H11.3719L10.2945 5.44876L9.20184 1.63637H7.34549L9.50143 6.7683L9.50424 12.7407Z" fill="black"/>
<g clip-path="url(#clip0_12_234)">
<path d="M89.605 0H80.395C71.99 0 70 1.99 70 10.395V19.605C70 28.01 71.99 30 80.395 30H89.605C98.01 30 100 28.01 100 19.605V10.395C100 1.99 97.9888 0 89.605 0ZM94.22 21.4037H92.04C91.215 21.4037 90.96 20.7475 89.4775 19.245C88.1862 17.995 87.615 17.8263 87.2975 17.8263C86.8525 17.8263 86.725 17.9538 86.725 18.5675V20.5363C86.725 21.0663 86.5562 21.3838 85.1587 21.3838C82.8512 21.3838 80.2887 19.9862 78.49 17.3813C75.78 13.5712 75.0375 10.7125 75.0375 10.12C75.0375 9.8025 75.165 9.50625 75.7788 9.50625H77.9588C78.5087 9.50625 78.7212 9.76 78.9338 10.3525C80.0125 13.465 81.8125 16.1962 82.5538 16.1962C82.8288 16.1962 82.9562 16.0688 82.9562 15.3713V12.1512C82.8713 10.6687 82.0875 10.5425 82.0875 10.0138C82.0875 9.75875 82.3 9.505 82.6375 9.505H86.0675C86.5338 9.505 86.7025 9.75875 86.7025 10.3088V14.65C86.7025 15.115 86.915 15.285 87.0413 15.285C87.3162 15.285 87.55 15.115 88.0575 14.6075C89.625 12.85 90.7463 10.14 90.7463 10.14C90.895 9.8225 91.1488 9.52625 91.7 9.52625H93.88C94.5362 9.52625 94.685 9.86375 94.5362 10.33C94.2612 11.6012 91.5938 15.3687 91.5938 15.3687C91.3612 15.75 91.2762 15.9187 91.5938 16.3438C91.8263 16.6612 92.5888 17.3175 93.0975 17.91C94.0288 18.9688 94.7475 19.8575 94.9388 20.4725C95.1513 21.085 94.8325 21.4025 94.2188 21.4025L94.22 21.4037Z" fill="black"/>
</g>
<g clip-path="url(#clip1_12_234)">
<path d="M145.478 0C142.443 0 140 2.44335 140 5.47782V24.5222C140 27.5567 142.443 30 145.478 30H155.8V18.2719H152.698V14.0494H155.8V10.4419C155.8 7.60764 157.632 5.00532 161.853 5.00532C163.562 5.00532 164.826 5.16939 164.826 5.16939L164.727 9.11253C164.727 9.11253 163.438 9.10035 162.031 9.10035C160.509 9.10035 160.265 9.80169 160.265 10.966V14.0494H164.847L164.648 18.2719H160.265V30.0001H164.522C167.557 30.0001 170 27.5567 170 24.5222V5.47785C170 2.44338 167.557 3e-05 164.522 3e-05H145.478L145.478 0Z" fill="black"/>
</g>
<g clip-path="url(#clip2_12_234)">
<path d="M236.786 0H213.214C211.44 0 210 1.43973 210 3.21429V26.7857C210 28.5603 211.44 30 213.214 30H236.786C238.56 30 240 28.5603 240 26.7857V3.21429C240 1.43973 238.56 0 236.786 0ZM233.511 10.6339C233.525 10.8214 233.525 11.0156 233.525 11.2031C233.525 17.0089 229.105 23.6987 221.029 23.6987C218.538 23.6987 216.228 22.9754 214.286 21.7299C214.641 21.7701 214.982 21.7835 215.344 21.7835C217.4 21.7835 219.288 21.0871 220.795 19.9085C218.866 19.8683 217.246 18.6027 216.69 16.8616C217.366 16.9621 217.975 16.9621 218.672 16.7812C216.663 16.3728 215.156 14.6049 215.156 12.4687V12.4152C215.739 12.7433 216.422 12.9442 217.138 12.971C216.536 12.5703 216.042 12.0267 215.701 11.3887C215.36 10.7507 215.182 10.0382 215.183 9.31473C215.183 8.49777 215.397 7.74777 215.779 7.09821C217.942 9.76339 221.19 11.5045 224.833 11.692C224.21 8.71205 226.44 6.29464 229.118 6.29464C230.384 6.29464 231.522 6.82366 232.326 7.6808C233.317 7.4933 234.268 7.125 235.112 6.62277C234.783 7.64062 234.094 8.49777 233.183 9.04018C234.067 8.94643 234.924 8.69866 235.714 8.35714C235.118 9.23438 234.368 10.0112 233.511 10.6339Z" fill="black"/>
</g>
<g clip-path="url(#clip3_12_234)">
<path d="M281.991 -0.00480652L279.996 5.14475V26.1916H287.087V29.9952H291.077L294.841 26.1916H300.606L308.36 18.3568V-0.00480652H281.991ZM305.702 17.0108L301.269 21.4907H294.178L290.414 25.2943V21.4907H284.43V2.68046H305.702V17.0108ZM301.269 7.83001V15.6581H298.612V7.83001H301.269ZM294.178 7.83001V15.6581H291.521V7.83001H294.178Z" fill="black"/>
</g>
<g clip-path="url(#clip4_12_234)">
<path d="M364 11.4281C363.294 11.4284 362.603 11.6381 362.016 12.0307C361.429 12.4234 360.971 12.9813 360.701 13.634C360.431 14.2867 360.36 15.0049 360.498 15.6977C360.636 16.3904 360.977 17.0268 361.476 17.5262C361.976 18.0256 362.612 18.3656 363.305 18.5033C363.998 18.6411 364.716 18.5702 365.369 18.2999C366.021 18.0295 366.579 17.5717 366.971 16.9843C367.364 16.3969 367.573 15.7064 367.573 15C367.573 14.0527 367.196 13.1444 366.526 12.4746C365.856 11.8049 364.947 11.4285 364 11.4281ZM372.351 8.68259C372.169 8.22177 371.895 7.80323 371.544 7.45293C371.194 7.10263 370.776 6.82804 370.315 6.6462C368.908 6.09107 365.56 6.21562 364 6.21562C362.44 6.21562 359.095 6.08638 357.685 6.6462C357.224 6.82804 356.805 7.10263 356.455 7.45293C356.105 7.80323 355.83 8.22177 355.648 8.68259C355.094 10.0888 355.218 13.4404 355.218 14.9993C355.218 16.5583 355.094 19.9058 355.651 21.3167C355.833 21.7776 356.107 22.1961 356.458 22.5464C356.808 22.8967 357.226 23.1713 357.687 23.3531C359.094 23.9083 362.442 23.7837 364.003 23.7837C365.564 23.7837 368.907 23.9129 370.317 23.3531C370.778 23.1713 371.197 22.8967 371.547 22.5464C371.897 22.1961 372.172 21.7776 372.354 21.3167C372.913 19.9105 372.784 16.5589 372.784 15C372.784 13.4411 372.913 10.0942 372.354 8.68326L372.351 8.68259ZM364 20.4911C362.914 20.4911 361.852 20.169 360.949 19.5657C360.046 18.9623 359.343 18.1047 358.927 17.1013C358.511 16.098 358.403 14.9939 358.614 13.9287C358.826 12.8636 359.349 11.8852 360.117 11.1172C360.885 10.3493 361.864 9.82631 362.929 9.61444C363.994 9.40256 365.098 9.5113 366.101 9.92691C367.105 10.3425 367.962 11.0463 368.566 11.9493C369.169 12.8523 369.491 13.914 369.491 15C369.492 15.7213 369.351 16.4358 369.075 17.1024C368.799 17.769 368.395 18.3747 367.885 18.8847C367.375 19.3948 366.769 19.7992 366.102 20.0749C365.436 20.3505 364.721 20.492 364 20.4911ZM369.717 10.5603C369.464 10.5604 369.216 10.4853 369.005 10.3446C368.794 10.2038 368.63 10.0037 368.533 9.76952C368.436 9.53533 368.41 9.2776 368.46 9.02894C368.509 8.78027 368.631 8.55183 368.81 8.37251C368.989 8.1932 369.218 8.07106 369.466 8.02155C369.715 7.97204 369.973 7.99739 370.207 8.09437C370.441 8.19136 370.642 8.35564 370.782 8.56643C370.923 8.77722 370.998 9.02505 370.998 9.27857C370.999 9.44693 370.967 9.61377 370.903 9.76952C370.839 9.92527 370.745 10.0669 370.626 10.1862C370.507 10.3055 370.366 10.4002 370.211 10.4649C370.055 10.5295 369.888 10.5629 369.72 10.5629L369.717 10.5603ZM375.786 0H352.214C351.362 0 350.544 0.338647 349.941 0.941443C349.339 1.54424 349 2.3618 349 3.21429V26.7857C349 27.6382 349.339 28.4558 349.941 29.0586C350.544 29.6614 351.362 30 352.214 30H375.786C376.638 30 377.456 29.6614 378.059 29.0586C378.661 28.4558 379 27.6382 379 26.7857V3.21429C379 2.3618 378.661 1.54424 378.059 0.941443C377.456 0.338647 376.638 0 375.786 0ZM374.639 19.4196C374.553 21.1359 374.161 22.6567 372.908 23.9062C371.655 25.1558 370.136 25.5556 368.422 25.6373C366.653 25.7371 361.351 25.7371 359.582 25.6373C357.866 25.5509 356.351 25.1585 355.096 23.9062C353.841 22.654 353.446 21.1326 353.365 19.4196C353.265 17.6504 353.265 12.3475 353.365 10.5804C353.451 8.86406 353.838 7.3433 355.096 6.09375C356.353 4.8442 357.873 4.44911 359.582 4.36741C361.351 4.26763 366.653 4.26763 368.422 4.36741C370.138 4.45379 371.658 4.84621 372.908 6.09844C374.158 7.35067 374.558 8.8721 374.639 10.5884C374.739 12.3509 374.739 17.6491 374.639 19.4196Z" fill="black"/>
</g>
<defs>
<clipPath id="clip0_12_234">
<rect width="30" height="30" fill="white" transform="translate(70)"/>
</clipPath>
<clipPath id="clip1_12_234">
<rect width="30" height="30" fill="white" transform="translate(140)"/>
</clipPath>
<clipPath id="clip2_12_234">
<rect width="30" height="30" fill="white" transform="translate(210)"/>
</clipPath>
<clipPath id="clip3_12_234">
<rect width="28.3636" height="30" fill="white" transform="translate(280)"/>
</clipPath>
<clipPath id="clip4_12_234">
<rect width="30" height="30" fill="white" transform="translate(349)"/>
</clipPath>
</defs>
</svg>
